<svg width="50" height="50" viewBox="0 0 50 50" fill="none" xmlns="http://www.w3.org/2000/svg">
<path d="M25 50C38.8071 50 50 38.8071 50 25C50 11.1929 38.8071 0 25 0C11.1929 0 0 11.1929 0 25C0 38.8071 11.1929 50 25 50Z" fill="#2ED6A1"/>
<path d="M23.2129 27.5313H30.1191C30.732 27.5294 31.3386 27.4069 31.9041 27.1706C32.4697 26.9344 32.9831 26.589 33.4152 26.1543C33.8473 25.7196 34.1895 25.2041 34.4224 24.6371C34.6552 24.0702 34.7741 23.4629 34.7722 22.85C34.7756 21.6125 34.2872 20.4243 33.4147 19.5467C32.5421 18.6691 31.3567 18.174 30.1191 18.1703H27.9222L23.2129 14.0625H30.1191C32.1504 14.0674 34.1168 14.7785 35.6813 16.0742C37.2457 17.3698 38.3109 19.1692 38.6941 21.1641C39.0855 23.16 38.7733 25.2299 37.8108 27.0217C36.8482 28.8135 35.2947 30.2165 33.4144 30.9922L38.8597 35.7453H32.6238L23.2129 27.5297V27.5313ZM26.5832 22.2813H19.6769C18.4397 22.285 17.2545 22.7798 16.382 23.6571C15.5094 24.5343 15.0209 25.7221 15.0238 26.9594C15.0205 28.1969 15.5088 29.3851 16.3814 30.2627C17.254 31.1403 18.4394 31.6353 19.6769 31.6391H21.8754L26.5816 35.7484H19.6769C17.6456 35.7436 15.6793 35.0324 14.1148 33.7368C12.5503 32.4411 11.4852 30.6417 11.1019 28.6469C10.7106 26.6509 11.0227 24.581 11.9853 22.7892C12.9478 20.9974 14.5014 19.5944 16.3816 18.8187L10.941 14.0625H17.1769L26.5832 22.2813Z" fill="white"/>
</svg>
