<svg width="50" height="50" viewBox="0 0 50 50" fill="none" xmlns="http://www.w3.org/2000/svg">
<path d="M25.2607 45.9521C13.8671 45.9521 4.56921 36.6436 4.56921 25.2606C4.56921 13.8691 13.8777 4.56909 25.2607 4.56909C36.6543 4.56909 45.9522 13.8776 45.9522 25.2606C45.9522 36.6521 36.6543 45.9521 25.2607 45.9521Z" fill="url(#paint0_linear_15_1093)"/>
<path d="M25 50C11.25 50 0 38.75 0 25C0 11.25 11.25 0 25 0C38.75 0 50 11.25 50 25C50 38.75 38.75 50 25 50ZM25 5.55851C14.3085 5.55851 5.55851 14.3085 5.55851 25C5.55851 35.6915 14.3085 44.4415 25 44.4415C35.6915 44.4415 44.4415 35.6915 44.4415 25C44.4415 14.3085 35.6915 5.55851 25 5.55851ZM24.4202 31.7713H35.2553V37.1883H28.8723V41.7713H23.3138V37.3404H16.6468C16.6468 35.5319 16.3723 33.7319 16.7894 32.066C16.9319 31.2319 17.8957 30.3989 18.5979 29.566L24.9809 22.066L27.6234 19.1511H17.2064V13.7234H23.3128V9.14894H28.7298V13.5904H35.3968C35.3968 15.3989 35.6713 17.1989 35.2543 18.8649C35.1117 19.6979 34.1479 20.5309 33.4457 21.3649L27.0628 28.8649L24.4298 31.7819L24.4202 31.7713Z" fill="black"/>
<defs>
<linearGradient id="paint0_linear_15_1093" x1="11.0999" y1="39.4211" x2="39.6646" y2="10.8565" gradientUnits="userSpaceOnUse">
<stop stop-color="#CF8724"/>
<stop offset="1" stop-color="#FDCE58"/>
</linearGradient>
</defs>
</svg>
