<svg width="50" height="50" viewBox="0 0 50 50" fill="none" xmlns="http://www.w3.org/2000/svg">
<path d="M25 50C38.8071 50 50 38.8071 50 25C50 11.1929 38.8071 0 25 0C11.1929 0 0 11.1929 0 25C0 38.8071 11.1929 50 25 50Z" fill="#EAB304"/>
<path d="M34.6089 22.7657L34.7183 22.5469C34.7183 22.4375 34.7183 22.3282 34.937 22.4063C34.954 22.3081 34.954 22.2076 34.937 22.1094C34.9898 21.9684 34.9898 21.813 34.937 21.6719C34.7154 21.1314 34.6769 20.5332 34.8277 19.9688C34.845 19.8969 34.845 19.8219 34.8277 19.75L34.937 19.6407C34.9814 19.6809 35.0184 19.7285 35.0464 19.7813C35.0637 19.8532 35.0637 19.9282 35.0464 20V20.1094C35.0464 20.2188 35.2339 20 35.312 19.9219C35.4086 19.8474 35.5134 19.7845 35.6245 19.7344C35.6454 19.4487 35.6082 19.1617 35.5152 18.8907C35.3412 18.3025 35.3799 17.6719 35.6245 17.1094C35.6245 17.2188 35.7652 17.2969 35.7652 17.4063C35.7917 17.8125 35.9636 18.1953 36.2495 18.4844C36.5667 18.8485 36.8058 19.2735 36.9527 19.7344C36.9527 19.7344 36.9527 19.875 37.062 19.875C37.512 20.0047 37.9214 20.2453 38.2495 20.5782C38.6277 20.9188 38.987 21.2782 39.3277 21.6563C39.3867 21.7207 39.4342 21.7946 39.4683 21.875H39.5777C39.5959 21.5315 39.5959 21.1873 39.5777 20.8438C39.5777 20.5469 39.7183 20.25 40.0152 20.2969H40.1558C40.1625 20.165 40.2117 20.0389 40.2963 19.9374C40.3808 19.836 40.496 19.7647 40.6245 19.7344C40.6794 19.8294 40.7083 19.9372 40.7083 20.0469C40.7083 20.1566 40.6794 20.2644 40.6245 20.3594C40.8433 20.625 40.8902 20.7657 40.6245 21.0625C40.3589 21.3594 40.4839 21.3907 40.6245 21.6875C40.655 21.5155 40.7187 21.3509 40.812 21.2032C40.8902 21.0469 40.9214 20.7969 41.1089 20.7188C41.1697 20.6973 41.2358 20.6973 41.2964 20.7188C41.4769 20.7546 41.6628 20.7546 41.8433 20.7188C41.9574 20.7094 42.0714 20.7361 42.1695 20.7949C42.2677 20.8538 42.3449 20.9419 42.3902 21.0469L41.8745 21.2969C41.9839 21.5157 41.8745 21.5938 41.6558 21.7344C41.5469 21.8344 41.4476 21.9442 41.3589 22.0625C41.5593 22.027 41.7576 21.98 41.9527 21.9219C42.0854 21.8882 42.2258 21.9026 42.3488 21.9627C42.4718 22.0228 42.5695 22.1246 42.6245 22.25C42.6664 22.3384 42.7311 22.414 42.812 22.4688C42.9635 22.6002 43.0586 22.7848 43.0777 22.9844C43.0896 23.0306 43.0896 23.0789 43.0777 23.125L42.7808 22.9063C42.743 22.87 42.6926 22.8497 42.6402 22.8497C42.5878 22.8497 42.5374 22.87 42.4995 22.9063C42.4471 22.9569 42.3771 22.9851 42.3042 22.9851C42.2314 22.9851 42.1614 22.9569 42.1089 22.9063C42.0026 22.8431 41.8811 22.8096 41.7574 22.8096C41.6336 22.8096 41.5121 22.8431 41.4058 22.9063C41.24 23.0153 41.0678 23.1145 40.8902 23.2032C41.0953 23.2308 41.2911 23.3059 41.4619 23.4225C41.6329 23.5391 41.7741 23.6941 41.8745 23.875C41.9839 24.0938 42.1402 24.3125 42.2495 24.5469C42.2924 24.6402 42.2966 24.7467 42.2616 24.8432C42.2265 24.9397 42.1549 25.0185 42.062 25.0625H41.9839V24.9844C41.9839 24.7969 41.8745 24.7657 41.687 24.7969C41.6358 24.8139 41.5816 24.8205 41.5278 24.8162C41.4739 24.812 41.4215 24.7971 41.3735 24.7723C41.3255 24.7476 41.2829 24.7136 41.2482 24.6722C41.2135 24.6308 41.1874 24.5828 41.1714 24.5313C40.9902 24.1673 40.6856 23.8794 40.312 23.7188L39.9839 23.5782C39.9594 23.7203 39.9119 23.8575 39.8433 23.9844C39.7918 24.0662 39.7287 24.1398 39.6558 24.2032C39.437 24.3907 39.437 24.4219 39.6558 24.6875C39.8745 24.9532 39.7652 24.8282 39.8433 24.9532C39.7257 24.9599 39.6082 24.9395 39.4998 24.8935C39.3913 24.8473 39.2951 24.7769 39.2183 24.6875C39.0242 24.4691 38.866 24.2212 38.7495 23.9532C38.7043 23.8282 38.7012 23.6918 38.7407 23.5648C38.7803 23.4378 38.8602 23.3273 38.9683 23.25C39.078 23.1414 39.1679 23.0145 39.2339 22.875L38.1245 22.5782C38.1424 22.7496 38.1424 22.9224 38.1245 23.0938C38.162 23.7235 38.162 24.3547 38.1245 24.9844C38.0868 25.9201 37.9401 26.8484 37.687 27.75C37.5041 28.4444 37.2419 29.1155 36.9058 29.75C36.6238 30.3219 36.3055 30.8751 35.9527 31.4063C35.6513 31.8475 35.3169 32.2654 34.9527 32.6563C34.5839 33.0889 34.1759 33.4864 33.7339 33.8438C33.2495 34.25 32.7339 34.5782 32.1714 34.9219C31.4141 35.4026 30.5938 35.776 29.7339 36.0313C29.1539 36.2014 28.5643 36.337 27.9683 36.4375C27.6378 36.5025 27.3039 36.5495 26.9683 36.5782C26.8657 36.6107 26.7724 36.6674 26.6962 36.7436C26.6201 36.8197 26.5634 36.9131 26.5308 37.0157C26.485 37.2633 26.3893 37.4989 26.2496 37.7085C26.11 37.918 25.9292 38.0969 25.7183 38.2344C25.5308 38.375 25.312 38.5 25.0933 38.6407L25.2027 38.3125C25.2216 38.2412 25.2214 38.1661 25.2023 38.0948C25.1831 38.0236 25.1455 37.9585 25.0933 37.9063C24.9839 37.7969 24.8277 37.9063 24.687 37.9063C24.5464 37.9063 24.4214 38.0938 24.3902 38.3125C24.3602 38.513 24.28 38.7026 24.157 38.8638C24.0341 39.0249 23.8725 39.1524 23.687 39.2344H23.4995C23.5485 39.1027 23.5852 38.9667 23.6089 38.8282C23.6089 38.7188 23.4995 38.6094 23.4214 38.5C23.3433 38.3907 23.2808 38.5 23.2027 38.5L22.5308 38.8282L22.312 38.9375L22.9058 39.2032C23.2271 39.3571 23.4863 39.6162 23.6402 39.9375C23.7036 40.0236 23.7379 40.1275 23.7379 40.2344C23.7379 40.3413 23.7036 40.4453 23.6402 40.5313C23.622 40.5592 23.6124 40.5918 23.6124 40.625C23.6124 40.6584 23.622 40.6909 23.6402 40.7188C23.6912 40.9038 23.705 41.0971 23.6809 41.2875C23.6567 41.478 23.5951 41.6617 23.4995 41.8282C23.4995 41.9375 23.312 42.0469 23.2339 42.1563L23.1245 41.4063C23.1245 41.369 23.1098 41.3333 23.0834 41.3069C23.057 41.2805 23.0212 41.2657 22.9839 41.2657C22.7633 41.2754 22.5445 41.2216 22.3535 41.1109C22.1625 41.0001 22.007 40.8369 21.9058 40.6407L21.7964 40.5C21.603 40.7769 21.3133 40.9719 20.9839 41.0469C20.7607 41.1481 20.5624 41.297 20.403 41.4834C20.2437 41.6697 20.1273 41.8888 20.062 42.125C20.0084 42.3961 19.9191 42.6588 19.7964 42.9063C19.7299 43.0765 19.5996 43.214 19.4334 43.2898C19.2671 43.3657 19.078 43.3738 18.9058 43.3125V43.9063C18.8212 43.8846 18.7417 43.8462 18.6721 43.7934C18.6026 43.7405 18.5442 43.6743 18.5006 43.5986C18.4569 43.523 18.4288 43.4393 18.4179 43.3526C18.407 43.266 18.4135 43.178 18.437 43.0938C18.4561 43.0063 18.4561 42.9157 18.437 42.8282C18.3283 42.616 18.3017 42.3711 18.3623 42.1405C18.4228 41.9098 18.5662 41.7096 18.7652 41.5782C19.0711 41.3551 19.3356 41.0801 19.5464 40.7657C19.5574 40.73 19.5574 40.6919 19.5464 40.6563L18.437 40.5157C18.3012 40.4783 18.1592 40.4687 18.0196 40.4875C17.8801 40.5063 17.7457 40.5531 17.6245 40.625L17.4058 40.9063C17.0777 41.2813 16.9214 41.3125 16.4839 41.0938C16.3116 41.3969 16.2456 41.7489 16.2964 42.0938C16.1309 41.9325 16.0167 41.726 15.9683 41.5C15.9492 41.3758 15.9492 41.2493 15.9683 41.125V40.9063C15.9326 40.7998 15.9326 40.6846 15.9683 40.5782C16.0992 40.2773 16.3393 40.0372 16.6402 39.9063C16.972 39.6888 17.3538 39.5597 17.7495 39.5313C18.0464 39.5125 18.3433 39.5125 18.6402 39.5313H18.8589C18.7927 39.3692 18.693 39.2229 18.5665 39.1017C18.44 38.9806 18.2894 38.8874 18.1245 38.8282L17.2808 38.5C17.1877 38.5136 17.093 38.49 17.017 38.4346C16.9411 38.3791 16.89 38.296 16.8745 38.2032C16.8745 38.1659 16.8598 38.1301 16.8334 38.1038C16.807 38.0773 16.7712 38.0625 16.7339 38.0625C16.473 38.0617 16.2176 38.1378 15.9995 38.2813C16.1089 37.9532 16.2652 37.6094 16.6245 37.5469C16.7855 37.5282 16.948 37.5282 17.1089 37.5469H17.2495C17.4683 37.2188 17.7964 37.2813 18.0933 37.4375C18.5261 37.6438 18.8855 37.975 19.1245 38.3907C19.1791 38.4985 19.2561 38.5934 19.3505 38.6689C19.4449 38.7443 19.5542 38.7987 19.6714 38.8282C19.6923 38.5424 19.6551 38.2555 19.562 37.9844C19.5565 37.8587 19.5112 37.738 19.4326 37.6396C19.3539 37.5413 19.246 37.4706 19.1245 37.4375C18.7495 37.3282 18.6402 37.0625 18.8277 36.6563C18.7041 36.5466 18.5538 36.4715 18.3919 36.4386C18.2301 36.4057 18.0624 36.4161 17.9058 36.4688C18.0152 36.1719 18.4527 36.0625 18.7495 36.0938C19.0179 36.2542 19.3281 36.3304 19.6402 36.3125C19.7449 36.3322 19.8434 36.3764 19.9276 36.4416C20.0118 36.5068 20.0793 36.5911 20.1245 36.6875L20.3433 37.125C20.5308 37.4532 20.6714 37.8282 20.8277 38.1563C21.0464 37.5313 21.312 36.8594 21.562 36.1563L21.187 36.0157L20.1089 35.5782C19.2864 35.2224 18.5057 34.777 17.7808 34.25C17.6539 34.1814 17.5167 34.1339 17.3745 34.1094C17.2652 34.1094 17.1089 34.25 17.187 34.375C17.2652 34.5 17.3745 34.5157 17.4527 34.6407C17.5308 34.7657 17.4527 34.75 17.5933 34.8282H17.4058C17.1519 34.834 16.9024 34.7623 16.6902 34.6227C16.4781 34.4832 16.3135 34.2823 16.2183 34.0469C15.9881 33.5831 15.8502 33.079 15.812 32.5625C15.8193 32.5452 15.8231 32.5266 15.8231 32.5078C15.8231 32.4891 15.8193 32.4705 15.812 32.4532L14.812 31.3438C14.7371 31.5346 14.7371 31.7467 14.812 31.9375L14.9214 32.1563V32.4219H14.6245C14.4558 32.2372 14.3185 32.0261 14.2183 31.7969C14.0777 31.25 13.9995 30.6875 13.8902 30.1407C13.8633 29.8668 13.8163 29.5951 13.7495 29.3282C13.6686 29.0154 13.5694 28.7075 13.4527 28.4063V29.2657C13.4527 29.3438 13.2652 29.2657 13.2339 29.125C13.0643 28.8338 12.9629 28.508 12.937 28.1719C12.9187 27.3832 13.0296 26.5968 13.2652 25.8438C13.3368 25.5677 13.4256 25.2964 13.5308 25.0313C13.495 25.1203 13.4477 25.2044 13.3902 25.2813L13.2495 25.4219V25.2344C13.2451 24.8831 13.3369 24.5372 13.5152 24.2344C13.7808 23.6407 14.1089 23.0469 14.4058 22.4688C14.5285 22.2624 14.6641 22.0641 14.812 21.875L14.5464 22.1563L14.3589 22.2657V22.1563C14.4595 21.989 14.569 21.8273 14.687 21.6719C15.0386 21.2461 15.4489 20.8725 15.9058 20.5625C16.012 20.5257 16.1277 20.5257 16.2339 20.5625L17.7964 20.8907L18.3433 21.0313C18.1944 21.1845 18.0682 21.3582 17.9683 21.5469C17.9203 21.6413 17.8953 21.7457 17.8953 21.8516C17.8953 21.9575 17.9203 22.0619 17.9683 22.1563C17.9952 22.1953 18.0095 22.2417 18.0095 22.2891C18.0095 22.3365 17.9952 22.3828 17.9683 22.4219C17.6127 22.7284 17.3115 23.093 17.0777 23.5V23.6407C17.0777 23.6407 17.5933 24.1563 17.8589 24.4532C17.8745 24.5 17.8745 24.5469 17.8589 24.5938C17.7408 24.7951 17.6785 25.0244 17.6785 25.2578C17.6785 25.4913 17.7408 25.7206 17.8589 25.9219C17.8768 25.9916 17.9088 26.0569 17.9527 26.1139C17.9966 26.1709 18.0517 26.2184 18.1145 26.2534C18.1774 26.2885 18.2466 26.3105 18.3182 26.3179C18.3898 26.3253 18.4621 26.3183 18.5308 26.2969C18.5178 26.6007 18.6117 26.8992 18.7964 27.1407C18.9058 27.25 19.062 27.3282 19.1714 27.4375C19.2371 27.4834 19.2864 27.5491 19.312 27.625C19.399 27.9036 19.5622 28.1521 19.7831 28.3426C20.004 28.5332 20.2738 28.6581 20.562 28.7032C21.012 28.7657 21.4683 28.6719 21.8589 28.4375C21.9995 28.4375 22.0464 28.3282 22.0777 28.4375C22.1652 28.9828 22.3402 29.5094 22.5933 30C22.9167 30.5719 23.3167 31.0969 23.7808 31.5625C24.198 31.961 24.7089 32.25 25.2652 32.4063C25.9527 32.561 26.6714 32.3672 27.187 31.8907C27.511 31.5628 27.7847 31.189 27.9995 30.7813L28.6714 29.7032C28.9671 29.2959 29.3451 28.9551 29.7808 28.7032C29.8531 28.6475 29.9369 28.6088 30.0262 28.5898C30.1155 28.5709 30.2078 28.5722 30.2964 28.5938L30.187 28.8125C30.104 28.9462 30.06 29.1005 30.06 29.2578C30.06 29.4152 30.104 29.5695 30.187 29.7032C30.2964 29.8438 30.3745 29.8438 30.4527 29.7032C30.5308 29.5625 30.6714 29.2969 30.9683 29.3282C31.2652 29.3594 31.2652 29.1407 31.2964 28.9532C31.3274 28.1395 31.5696 27.3478 31.9995 26.6563C32.0798 26.5738 32.1689 26.5005 32.2652 26.4375V27.0313C32.2949 27.1969 32.3433 27.3594 32.4058 27.5157L32.4995 27.3125C32.5262 27.2564 32.5683 27.2089 32.6208 27.1758C32.6734 27.1425 32.7342 27.1249 32.7964 27.125C32.87 27.1121 32.9365 27.0734 32.9839 27.0157C33.0869 26.8946 33.1581 26.7497 33.1909 26.5942C33.2236 26.4387 33.2169 26.2773 33.1714 26.125C33.1343 25.8921 33.1343 25.6548 33.1714 25.4219C33.1707 25.1266 33.246 24.836 33.3902 24.5782C33.4242 24.4977 33.4718 24.4238 33.5308 24.3594H33.6402V24.875C33.6283 24.9212 33.6283 24.9695 33.6402 25.0157H33.7808L34.062 24.8282C34.1685 24.6378 34.2174 24.4208 34.2027 24.2032C34.1811 24.0791 34.1811 23.9522 34.2027 23.8282V22.5469C34.2027 22.375 34.2027 22.3594 34.312 22.25L34.4839 22.1563V22.8438C34.4955 22.8205 34.5133 22.8009 34.5354 22.787C34.5575 22.7733 34.5829 22.7659 34.6089 22.7657ZM15.4058 15.6407L16.3277 14.7188C16.381 14.6608 16.4445 14.6132 16.5152 14.5782C16.6245 14.4688 16.5152 14.3594 16.5152 14.25C16.5152 14.1407 16.3745 14.25 16.2495 14.25H16.1089V14.0625C16.1478 13.9345 16.214 13.8165 16.3031 13.7167C16.3921 13.6169 16.5018 13.5376 16.6245 13.4844C17.0285 13.3389 17.4706 13.3389 17.8745 13.4844C17.9086 13.501 17.946 13.5096 17.9839 13.5096C18.0218 13.5096 18.0592 13.501 18.0933 13.4844L18.9839 13C19.1245 13 19.0933 12.8594 18.9839 12.7813C18.8745 12.7032 18.7183 12.5938 18.5777 12.7813C18.5315 12.7932 18.4832 12.7932 18.437 12.7813C18.437 12.5157 18.7027 12.2969 18.9527 12.1875C19.3745 12.0578 19.8277 12.0578 20.2495 12.1875H20.312C20.4214 12.1875 20.7495 12.3282 21.0152 12.1875L21.562 12C21.7027 12 21.7027 11.8907 21.562 11.8125C21.4214 11.7344 21.3745 11.5938 21.2339 11.7032C21.0933 11.8125 21.2339 11.7032 21.0933 11.7032C21.0637 11.6714 21.0471 11.6295 21.0471 11.586C21.0471 11.5425 21.0637 11.5007 21.0933 11.4688C21.3658 11.2633 21.7082 11.1735 22.0464 11.2188C22.3539 11.2425 22.6475 11.3567 22.8902 11.5469H22.9995C23.0523 11.6087 23.1211 11.6545 23.1984 11.6793C23.2756 11.7041 23.3583 11.707 23.437 11.6875C23.5268 11.6339 23.6293 11.6055 23.7339 11.6055C23.8385 11.6055 23.9411 11.6339 24.0308 11.6875H24.1402V11.5469C24.1154 11.4507 24.0585 11.3658 23.979 11.3061C23.8995 11.2464 23.802 11.2157 23.7027 11.2188H23.5933C23.7789 11.074 23.9992 10.9803 24.2324 10.9475C24.4654 10.9146 24.7031 10.9435 24.9214 11.0313C25.2433 11.1625 25.5245 11.3782 25.7339 11.6563C25.816 11.7069 25.9057 11.7438 25.9995 11.7657C26.2132 11.759 26.4259 11.7962 26.6245 11.875C26.812 11.9844 26.7339 11.875 26.7652 12.0157C26.7889 11.9655 26.8025 11.911 26.8052 11.8555C26.8078 11.7999 26.7994 11.7445 26.7805 11.6922C26.7616 11.6399 26.7327 11.5919 26.6952 11.5509C26.6577 11.5098 26.6125 11.4767 26.562 11.4532H26.2495V11.2188C26.4199 11.1856 26.595 11.1856 26.7652 11.2188C27.2589 11.2766 27.7027 11.5438 27.9839 11.9532C28.0933 12.1407 28.1839 12.3391 28.2495 12.5469C28.3825 12.5306 28.5174 12.5494 28.6408 12.6015C28.7641 12.6536 28.8717 12.7371 28.9527 12.8438H29.062C29.1268 12.8307 29.1899 12.8097 29.2495 12.7813C29.2462 12.6595 29.2054 12.5416 29.1327 12.4438C29.06 12.346 28.959 12.2728 28.8433 12.2344H28.7339C28.8745 12.2344 28.9995 12.125 29.1402 12.2344C29.3745 12.2563 29.6011 12.3203 29.812 12.4219C30.3683 12.6485 30.7839 13.1235 30.937 13.7032C31.2027 13.8438 31.3745 14 31.562 14.1094H31.7808V13.7813C31.7578 13.6697 31.709 13.565 31.6385 13.4756C31.568 13.3861 31.4777 13.3142 31.3745 13.2657L31.2339 13.1563C31.4049 13.118 31.5829 13.1251 31.7502 13.1773C31.9175 13.2294 32.0681 13.3245 32.187 13.4532C32.4761 13.6969 32.6917 14.0157 32.812 14.375C32.8246 14.4336 32.8511 14.4883 32.8891 14.5344C32.9273 14.5807 32.9758 14.6171 33.0308 14.6407C33.1495 14.7297 33.2589 14.8282 33.3589 14.9375C33.4995 14.5313 33.1714 14.3125 33.062 14.0157C33.1813 14.0182 33.2987 14.046 33.4064 14.0971C33.5141 14.1483 33.6098 14.2217 33.687 14.3125C33.9058 14.5407 34.1027 14.786 34.2808 15.0469C34.3933 15.2375 34.5183 15.4203 34.6558 15.5938C34.7683 15.8032 34.8417 16.0313 34.8745 16.2657C34.8966 16.7955 34.8225 17.3248 34.6558 17.8282C34.6369 18.1717 34.6369 18.516 34.6558 18.8594C34.6714 18.9063 34.6714 18.9532 34.6558 19C34.5178 19.1138 34.4039 19.2539 34.3207 19.4121C34.2376 19.5705 34.1867 19.7438 34.1714 19.9219C34.0973 20.3877 34.0973 20.8623 34.1714 21.3282V21.4375C33.9565 21.5791 33.7799 21.7715 33.6571 21.9977C33.5345 22.224 33.4696 22.4771 33.4683 22.7344V23.5469C33.2433 23.5925 33.0345 23.6978 32.8641 23.8518C32.6937 24.0058 32.5678 24.2026 32.4995 24.4219C32.3902 24.6407 32.3589 24.9063 32.2339 25.125C32.1089 25.3438 32.0933 25.2657 32.0152 25.3438V25.0469C32.1085 24.558 32.1452 24.0599 32.1245 23.5625C32.1399 22.8285 32.0015 22.0993 31.7183 21.4219V21.1563C31.9632 20.9066 32.1173 20.582 32.1558 20.2344C32.1951 19.7143 32.1951 19.192 32.1558 18.6719C32.1623 18.3031 32.0282 17.9456 31.7808 17.6719C31.6538 17.5416 31.4905 17.4524 31.3121 17.4163C31.1337 17.38 30.9486 17.3984 30.7808 17.4688C30.5629 17.561 30.3769 17.7155 30.2463 17.9127C30.1157 18.11 30.0462 18.3415 30.0464 18.5782V19.125C29.4941 18.5713 28.8276 18.1446 28.0933 17.875C27.6718 17.7266 27.2378 17.6168 26.7964 17.5469H25.8433C25.2273 17.5492 24.6155 17.6494 24.0308 17.8438C23.7027 17.9532 23.4058 18.1094 23.0777 18.2188C23.044 18.2366 23.0064 18.2459 22.9683 18.2459C22.9302 18.2459 22.8927 18.2366 22.8589 18.2188C22.158 17.7959 21.4004 17.475 20.6089 17.2657C20.2361 17.1647 19.8539 17.1019 19.4683 17.0782C18.687 16.9219 17.9058 16.8125 17.2495 16.6094C16.662 16.4692 16.1023 16.2315 15.5933 15.9063C15.5583 15.8012 15.4931 15.7088 15.4058 15.6407ZM30.1714 22.9844C30.1714 23.25 29.687 23.3125 29.1714 23.1719V23.7188C29.1793 23.7811 29.1793 23.844 29.1714 23.9063H28.9527C28.7979 23.7809 28.6517 23.6451 28.5152 23.5C28.4235 23.5396 28.342 23.5996 28.2771 23.6755C28.2121 23.7513 28.1653 23.8409 28.1402 23.9375C28.0308 24.2344 27.8745 24.2657 27.6558 23.9375C27.5751 23.8556 27.4861 23.7823 27.3902 23.7188C27.29 23.8614 27.1804 23.9971 27.062 24.125C27.0349 24.157 27.0014 24.1833 26.9638 24.202C26.9262 24.2208 26.8853 24.2318 26.8433 24.2344C26.7873 24.1793 26.7399 24.1162 26.7027 24.0469C26.6866 23.9382 26.6866 23.8275 26.7027 23.7188C26.5152 24.2032 26.2964 24.6094 25.7495 24.7188C25.7296 24.5145 25.7675 24.3088 25.8589 24.125C25.9683 23.9375 25.8589 24.125 25.8589 24.0157C25.6151 24.25 25.4698 24.5686 25.4527 24.9063C25.4777 25.5828 25.6527 26.2453 25.9683 26.8438C26.187 27.3907 26.4527 27.9219 26.6714 28.4063C26.8714 28.9016 26.962 29.4344 26.937 29.9688C26.9621 30.2405 26.9078 30.5136 26.7804 30.7548C26.653 30.9961 26.4582 31.1951 26.2198 31.3275C25.9812 31.46 25.7093 31.5203 25.4373 31.501C25.1651 31.4817 24.9044 31.3837 24.687 31.2188C24.33 30.9974 24.0173 30.7113 23.7652 30.375C23.5464 30.0782 23.3277 29.7813 23.1402 29.4844C23.0354 29.2672 22.9466 29.0427 22.8745 28.8125V28.5938C22.9618 28.5885 23.0485 28.6114 23.1217 28.6593C23.195 28.7071 23.2507 28.7773 23.2808 28.8594C23.3589 28.9844 23.687 29.4844 23.9058 29.7813C24.0855 30.1407 24.3558 30.4469 24.687 30.6719C24.7968 30.7182 24.9146 30.7423 25.0337 30.7431C25.1529 30.7437 25.2709 30.7209 25.3812 30.6759C25.4915 30.6309 25.5918 30.5646 25.6765 30.4809C25.7612 30.397 25.8285 30.2973 25.8745 30.1875V30.0782C25.9404 29.8836 25.9646 29.6773 25.9458 29.4728C25.9269 29.2683 25.8655 29.0699 25.7652 28.8907C25.4995 28.2969 25.1714 27.7032 24.8745 27.125C24.531 26.5019 24.2934 25.8261 24.1714 25.125C24.153 24.9537 24.153 24.7808 24.1714 24.6094C23.937 24.6282 23.7027 24.6282 23.4683 24.6094L22.7652 24.4219L22.437 24.6407C22.4518 24.5685 22.4518 24.4941 22.437 24.4219C22.4403 24.2788 22.4041 24.1374 22.3325 24.0135C22.2608 23.8894 22.1565 23.7875 22.0308 23.7188C21.952 23.7188 21.8765 23.75 21.8209 23.8058C21.7652 23.8614 21.7339 23.9369 21.7339 24.0157C21.7226 24.1751 21.7542 24.3346 21.8257 24.4776C21.8971 24.6206 22.0058 24.7417 22.1402 24.8282L22.7652 25.2657C22.9839 25.4063 22.9527 25.4063 23.062 25.2657C23.0773 25.1936 23.0773 25.1191 23.062 25.0469C23.3589 25.0469 23.4683 25.2344 23.4995 25.5313C23.5714 25.9063 23.6714 26.2782 23.7964 26.6407C23.8033 26.7193 23.7943 26.7985 23.7702 26.8736C23.746 26.9487 23.7071 27.0183 23.6558 27.0782C23.4629 27.3214 23.2098 27.5098 22.9214 27.625C22.6852 27.7166 22.4233 27.7166 22.187 27.625C22.3235 27.4894 22.4698 27.3641 22.6245 27.25C22.6902 27.1833 22.7376 27.1009 22.7621 27.0106C22.7867 26.9203 22.7878 26.8252 22.7652 26.7344C22.754 26.705 22.735 26.6794 22.7102 26.6601C22.6854 26.6408 22.6558 26.6287 22.6245 26.625C22.4793 26.6071 22.3324 26.6071 22.187 26.625C22.074 26.6332 21.9681 26.6833 21.8902 26.7657C21.6341 26.9689 21.3625 27.1518 21.0777 27.3125C20.8458 27.433 20.5816 27.4766 20.3233 27.4373C20.065 27.398 19.8258 27.2777 19.6402 27.0938C19.5067 26.9442 19.4057 26.7687 19.3433 26.5782L19.2339 26.3594C19.1789 26.4155 19.1157 26.4629 19.0464 26.5C18.9683 26.5 18.937 26.3125 19.0464 26.2813C19.0917 26.0782 19.1558 25.8797 19.2339 25.6875C19.2517 25.6538 19.261 25.6163 19.261 25.5782C19.261 25.54 19.2517 25.5025 19.2339 25.4688C19.1089 25.295 18.9425 25.1553 18.7495 25.0625C18.6089 24.9532 18.4839 25.0625 18.3745 25.0625H18.187C18.1908 25.0001 18.1908 24.9375 18.187 24.875C18.2135 24.7105 18.2863 24.5569 18.397 24.4323C18.5078 24.3077 18.6517 24.2174 18.812 24.1719H18.9995C18.5516 24.001 18.1464 23.7343 17.812 23.3907C17.7027 23.2813 17.6714 23.2032 17.812 23.0938C17.9527 22.9844 18.2183 22.7344 18.437 22.5782C18.8565 22.4292 19.3144 22.4292 19.7339 22.5782C20.1199 22.7063 20.473 22.9188 20.7652 23.2032L20.8745 23.3125C20.7864 23.0449 20.6376 22.8014 20.4398 22.6008C20.2418 22.4002 20.0003 22.2481 19.7339 22.1563C19.2581 21.9791 18.7569 21.8789 18.2495 21.8594C18.2746 21.7648 18.3262 21.6793 18.3982 21.6129C18.4702 21.5465 18.5594 21.5019 18.6558 21.4844L19.4995 21.3282C19.7996 21.2614 20.0786 21.1219 20.312 20.9219C20.1612 20.7976 19.999 20.6877 19.8277 20.5938C19.3902 20.4063 18.937 20.1875 18.4995 20.0469C18.102 19.8716 17.6809 19.7558 17.2495 19.7032C16.6475 19.6191 16.0557 19.4724 15.4839 19.2657C14.794 19.0773 14.1358 18.7877 13.5308 18.4063C12.9058 18 12.3745 17.4688 11.9683 16.8438C11.8736 16.682 11.8001 16.5087 11.7495 16.3282V16.1407H11.937L12.187 16.2813C12.5933 16.6094 12.9683 17.0157 13.3745 17.3125C13.8729 17.6743 14.4348 17.9393 15.0308 18.0938C15.5152 18.2032 15.9839 18.3125 16.4683 18.3907C16.9527 18.4688 17.2808 18.3907 17.687 18.5L18.5777 18.6094C18.9167 18.6328 19.2527 18.6953 19.5777 18.7969C20.0933 18.9844 20.5777 19.2032 21.062 19.3907C21.09 19.4088 21.1226 19.4185 21.1558 19.4185C21.1891 19.4185 21.2216 19.4088 21.2495 19.3907C21.4527 19.3453 21.6511 19.2813 21.8433 19.2032V19.0313C21.4831 18.8302 21.1128 18.6477 20.7339 18.4844C20.0235 18.205 19.276 18.0314 18.5152 17.9688L17.4839 17.8594C16.9187 17.7659 16.3603 17.6353 15.812 17.4688C15.2446 17.2623 14.7163 16.9612 14.2495 16.5782C13.8566 16.2748 13.563 15.8615 13.4058 15.3907V15.0625C13.4479 15.0449 13.493 15.0359 13.5386 15.0359C13.5842 15.0359 13.6293 15.0449 13.6714 15.0625L14.0777 15.5C14.2964 15.7188 14.5152 15.9375 14.7808 16.1719C15.3995 16.6563 16.112 17.0078 16.8745 17.2032C17.312 17.3125 17.7652 17.3907 18.2027 17.4688C18.9058 17.5782 19.6402 17.6875 20.3433 17.8438C21.1769 17.9933 21.9544 18.3659 22.5933 18.9219C22.8589 19.1407 23.0777 19.0313 23.3277 18.9219C23.4601 18.8969 23.597 18.9153 23.7181 18.9744C23.8392 19.0336 23.9379 19.1302 23.9995 19.25C24.187 19.7547 24.187 20.3078 23.9995 20.8125C23.9827 20.906 23.9946 21.0022 24.0337 21.0888C24.0727 21.1752 24.1371 21.2478 24.2183 21.2969H24.4058C24.6239 21.2075 24.8618 21.1777 25.0953 21.2107C25.3287 21.2437 25.5491 21.3382 25.7339 21.4844C25.7918 21.53 25.8634 21.5548 25.937 21.5548C26.0108 21.5548 26.0824 21.53 26.1402 21.4844C26.4466 21.3412 26.744 21.1794 27.0308 21C27.3277 20.8125 27.1714 20.7344 27.2495 20.5938C27.356 20.3775 27.5283 20.2005 27.7417 20.0882C27.9551 19.9759 28.1985 19.9341 28.437 19.9688C28.773 19.9688 29.1089 20.0047 29.437 20.0782C29.7032 20.1498 29.9835 20.1498 30.2495 20.0782C30.4173 20.0581 30.5742 19.9851 30.6978 19.8699C30.8213 19.7548 30.9052 19.6034 30.937 19.4375V18.4375C30.937 18.3282 30.937 18.2188 31.1245 18.2188C31.312 18.2188 31.2652 18.3594 31.2652 18.4844C31.3777 19 31.3777 19.5313 31.2652 20.0469C31.234 20.2697 31.1168 20.4714 30.9386 20.6088C30.7604 20.7461 30.5355 20.808 30.312 20.7813H28.9839C28.8041 20.7699 28.6262 20.8237 28.4828 20.9326C28.3392 21.0417 28.2399 21.1988 28.2027 21.375C28.1855 21.4469 28.1855 21.5219 28.2027 21.5938C28.312 21.8125 28.3902 22 28.7183 21.9688C28.8933 21.9844 29.0308 22.1219 29.0464 22.2969C29.0805 22.4841 29.1757 22.6546 29.317 22.7818C29.4584 22.9091 29.638 22.9859 29.8277 23L30.1714 22.9844ZM21.4683 21.9063C21.6558 22.0985 21.8542 22.2813 22.062 22.4532C22.1679 22.5331 22.2967 22.5762 22.4292 22.5762C22.5617 22.5762 22.6907 22.5331 22.7964 22.4532C23.0028 22.3306 23.2011 22.1948 23.3902 22.0469V21.9375C23.3726 21.8668 23.3395 21.8008 23.2937 21.7441C23.2478 21.6874 23.1901 21.6414 23.1245 21.6094C22.9914 21.5743 22.8514 21.5743 22.7183 21.6094L22.4527 21.7188C22.1866 21.7905 21.9063 21.7905 21.6402 21.7188L21.4683 21.9063ZM26.562 22.4219C26.6258 22.4744 26.7006 22.5118 26.7808 22.5313C27.0543 22.5836 27.302 22.7267 27.4839 22.9375C27.6652 22.9547 27.8495 22.9547 28.0308 22.9375C28.1402 22.9375 28.2183 22.8282 28.3277 22.7969C28.2383 22.6889 28.1389 22.5895 28.0308 22.5C27.5653 22.304 27.0458 22.2764 26.562 22.4219ZM7.09332 27.2344C7.28874 27.4434 7.53779 27.5947 7.81333 27.6719C8.08886 27.749 8.38029 27.7491 8.65582 27.6719C8.74776 27.6447 8.83222 27.5968 8.90266 27.5318C8.97311 27.4668 9.02765 27.3864 9.06207 27.2969C8.47632 27.4323 7.86149 27.3547 7.32769 27.0782C7.0752 26.9341 6.85574 26.7387 6.68349 26.5045C6.51124 26.2705 6.39003 26.0027 6.32769 25.7188C6.21069 25.3027 6.22942 24.8602 6.38117 24.4557C6.53291 24.051 6.80974 23.7053 7.17144 23.4688C7.01008 23.9868 7.06097 24.5476 7.31293 25.0282C7.5649 25.5087 7.99734 25.8695 8.51519 26.0313H8.73394C9.19978 26.1282 9.68463 26.0671 10.1119 25.8577C10.5391 25.6484 10.8844 25.3025 11.0933 24.875C10.9295 25.0016 10.7731 25.1372 10.6245 25.2813C9.94175 25.75 9.04175 25.75 8.35894 25.2813C8.17375 25.1591 8.0205 24.9943 7.91199 24.8007C7.80349 24.6071 7.74289 24.3905 7.73524 24.1687C7.72759 23.9469 7.77313 23.7265 7.86803 23.5259C7.96295 23.3253 8.10448 23.1503 8.28082 23.0157C8.30183 23.1461 8.3521 23.2701 8.42787 23.3784C8.50364 23.4866 8.60294 23.5763 8.71832 23.6407C8.94768 23.7671 9.1955 23.8568 9.45269 23.9063C9.73285 23.9512 10.0196 23.9309 10.2906 23.8469C10.5616 23.7628 10.8095 23.6174 11.0152 23.4219C11.2414 23.1896 11.4169 22.9131 11.5308 22.6094C11.8277 21.9063 12.0464 21.1719 12.3745 20.4688C12.587 20.0401 12.8217 19.623 13.0777 19.2188C13.0777 19.1094 13.2183 19.2188 13.2964 19.2188L14.1089 19.6563L14.6245 19.875L14.4058 20.0625C13.9162 20.5844 13.4961 21.1674 13.1558 21.7969C12.8902 22.2813 12.6402 22.7188 12.4214 23.2032C12.2027 23.6875 11.9839 24.3125 11.7964 24.8594L11.3589 26.1094C11.2495 26.4375 11.0933 26.7344 10.9527 27.0625C10.7432 27.5376 10.38 27.9284 9.92144 28.1719C9.65207 28.3028 9.36062 28.3823 9.06207 28.4063C8.76637 28.4436 8.46715 28.4436 8.17144 28.4063C7.93212 28.388 7.70397 28.2975 7.51709 28.1469C7.3302 27.9963 7.19335 27.7925 7.12457 27.5625C7.14621 27.4524 7.13536 27.3385 7.09332 27.2344ZM29.0777 25.9844C29.0964 26.1563 29.0964 26.3282 29.0777 26.5C29.0777 26.7188 28.937 26.7188 28.7495 26.6094L28.312 26.3907H28.1245C28.1878 26.5168 28.2207 26.6559 28.2207 26.7969C28.2207 26.938 28.1878 27.0771 28.1245 27.2032C28.0989 27.2791 28.0496 27.3448 27.9839 27.3907H27.812L27.7027 27.0625C27.6649 26.976 27.5945 26.9077 27.5068 26.8726C27.419 26.8375 27.321 26.8384 27.2339 26.875C27.0891 26.9147 26.9518 26.9781 26.8277 27.0625H26.6089C26.3391 26.5459 26.1644 25.9848 26.0933 25.4063L26.2495 25.5938C26.3776 25.6914 26.5339 25.7442 26.6949 25.7442C26.8558 25.7442 27.0123 25.6914 27.1402 25.5938C27.1779 25.5131 27.1975 25.425 27.1975 25.336C27.1975 25.2469 27.1779 25.1589 27.1402 25.0782C27.1402 24.9688 27.0308 24.8907 26.9995 24.7813C27.2183 24.7813 27.2183 24.5938 27.7808 25.2657L28.187 25.0469C28.3277 25.0469 28.187 24.8282 28.187 24.75V24.4219L28.4527 24.5313C28.5286 24.5569 28.5943 24.6062 28.6402 24.6719C28.8734 24.9348 29.1355 25.1707 29.4214 25.375C29.5083 25.447 29.5775 25.538 29.6236 25.6409C29.6696 25.7439 29.6914 25.8561 29.687 25.9688V26.1094H29.5777C29.187 25.9844 29.187 25.9844 29.0777 25.9844ZM10.6245 23.5C10.3231 23.3223 9.9727 23.2457 9.62457 23.2813C9.47928 23.2993 9.33235 23.2993 9.18707 23.2813C9.09608 23.2662 9.00986 23.2301 8.93524 23.1759C8.86063 23.1216 8.79968 23.0508 8.75722 22.9689C8.71476 22.887 8.69196 22.7964 8.69064 22.7041C8.6893 22.6119 8.70948 22.5207 8.74957 22.4375C8.89019 22.4375 9.01519 22.625 9.15582 22.7032C9.29644 22.7813 9.34332 22.7032 9.34332 22.5938C9.33835 22.5026 9.36105 22.412 9.40844 22.334C9.45585 22.2559 9.52573 22.194 9.60894 22.1563C9.72798 22.1145 9.85607 22.1055 9.97977 22.1302C10.1035 22.155 10.2183 22.2125 10.3121 22.2969C10.6277 22.6094 10.7495 23.0719 10.6245 23.5Z" fill="white"/>
</svg>
