<svg width="50" height="50" viewBox="0 0 50 50" fill="none" xmlns="http://www.w3.org/2000/svg">
<path d="M25 50C38.8071 50 50 38.8071 50 25C50 11.1929 38.8071 0 25 0C11.1929 0 0 11.1929 0 25C0 38.8071 11.1929 50 25 50Z" fill="#4BCF51"/>
<path d="M12.755 17.8725L15.3007 17.1257L17.8465 16.3778C18.089 16.3278 18.1167 16.2214 18.0678 15.98L16.9263 12.1289C16.8763 11.8863 16.905 11.78 17.1476 11.731C17.9412 11.5427 18.6284 11.3268 19.3816 11.0714C19.6242 11.0214 19.6625 11.0906 19.6731 11.2629L20.7752 15.048C20.8146 15.1151 20.8529 15.1831 20.8635 15.3565L22.7784 14.7863C22.8465 14.747 22.8359 14.5736 22.8635 14.4651L22.055 11.5044L21.789 10.5746C21.7114 10.4395 21.739 10.3321 21.9135 10.3225L24.3231 9.65229C24.3912 9.61293 24.4295 9.67995 24.4976 9.64165L25.3337 12.497C25.4614 12.8736 25.589 13.2523 25.6486 13.6672C25.6986 13.9097 25.805 13.9374 26.0465 13.8885L28.8656 13.614C29.7763 13.63 30.6976 13.8182 31.5625 14.2204C32.7571 14.8842 33.4497 15.9268 33.8039 17.1672C34.0305 18.0182 34.1507 18.8608 33.921 19.7151C33.7507 20.3565 33.3646 20.9385 32.9401 21.4544C32.872 21.4938 32.8337 21.6002 32.7082 21.6778C33.0965 21.7246 33.4444 21.7023 33.8327 21.7491C34.9965 21.8895 35.9667 22.3214 36.7848 23.1108C37.3486 23.7768 37.7508 24.6278 37.9763 25.4895C38.2529 26.5927 38.3827 27.5991 38.2039 28.6959C37.9678 30.0044 37.2933 31.0363 36.289 31.7853C34.9859 32.8087 33.555 33.4555 32.0837 34.0331C31.8412 34.0821 31.7454 34.2289 31.7965 34.4693L32.8986 38.2534C32.9869 38.5619 33.0263 38.6299 32.6114 38.6895L30.4433 39.3097C30.2008 39.3597 30.1625 39.2916 30.1518 39.1182L29.0773 35.2278C28.9997 35.0916 29.0273 34.9853 28.8646 34.9959L26.9497 35.5661L28.1114 39.7661C28.122 39.9406 28.1614 40.0087 27.9199 40.0576C27.1263 40.2448 26.371 40.5002 25.6167 40.7555C25.3742 40.8055 25.3359 40.7363 25.3252 40.564L24.2507 36.6736C24.2114 36.6055 24.2401 36.4991 24.1625 36.3629L18.7231 37.8799L18.6316 36.9406L18.3603 34.7512C18.3103 34.5087 18.3784 34.4693 18.5816 34.3534C19.1348 34.2151 19.7518 34.0374 20.2656 33.8214C20.8848 33.6438 21.1348 33.1385 20.9295 32.6268L17.4848 20.7225C17.3071 20.1034 16.6178 19.6906 15.8912 19.8395C15.1646 19.9885 14.4784 20.2044 13.8593 20.3821C13.7242 20.4597 13.6167 20.4321 13.6071 20.2576L12.888 17.6055C12.7348 17.9651 12.7348 17.9651 12.7635 17.8576L12.755 17.8725ZM25.8539 32.5927C25.922 32.5534 26.0284 32.5821 26.0284 32.5821C27.2667 32.2278 28.6135 31.9012 29.8018 31.3055C30.6529 30.9044 31.3976 30.4757 31.9848 29.7736C33.0359 28.6246 32.6018 26.6214 31.2316 25.9693C30.5805 25.6236 29.8444 25.597 29.1071 25.5714C27.4986 25.598 25.922 26.148 24.4125 26.6565C24.1699 26.7065 24.2103 26.7629 24.2593 27.0161L24.9188 29.2523L25.855 32.5927H25.8539ZM27.5529 22.4119C27.688 22.3331 27.9869 22.0714 28.2188 21.848C29.3465 20.8353 29.1763 18.9544 27.8252 18.1959C27.1359 17.781 26.2933 17.7278 25.5273 17.8087C24.3465 17.9502 23.2827 18.2938 22.1103 18.6097C21.8678 18.6587 21.8401 18.7651 21.889 19.0076C22.3718 20.6037 22.8184 22.2105 23.2284 23.8268C23.239 24.0012 23.3348 24.0289 23.5199 24.0204L24.371 23.7927C25.4635 23.3427 26.4603 23.048 27.5433 22.4129L27.5529 22.4119Z" fill="white"/>
</svg>
