<svg width="50" height="50" viewBox="0 0 50 50" fill="none" xmlns="http://www.w3.org/2000/svg">
<path d="M45.8191 38.2481H35.9608V24.6836L24.9997 35.6469L14.0375 24.6858V38.2503H3.86353C8.27933 45.2665 16.0865 49.9999 24.9997 49.9999C33.9129 49.9999 41.7201 45.3472 46.1337 38.2492H45.818L45.8191 38.2481Z" fill="#4C4C4C"/>
<path d="M8.83269 33.0437V12.223L25 28.3909L41.1673 12.2241V33.0447H48.6598C49.5275 30.521 50 27.8401 50 25.0011C50 11.1989 38.7994 0 25 0C11.2006 0 0 11.1989 0 25.0001C0 27.839 0.472509 30.521 1.34021 33.0437H8.83269Z" fill="#FF6B01"/>
</svg>
