<svg width="50" height="50" viewBox="0 0 50 50" fill="none" xmlns="http://www.w3.org/2000/svg">
<path d="M25.0016 0C11.1932 0 0 11.1932 0 25.0005C0 38.8078 11.1932 50 24.9995 50C38.8057 50 49.999 38.8068 49.999 25.0005C49.999 11.1943 38.8068 0 25.0016 0Z" fill="#659172"/>
<path d="M25.0016 48.0371C18.8919 48.0363 13.0328 45.609 8.71242 41.289C4.39207 36.9691 1.96428 31.1101 1.96289 25.0005C1.964 18.8909 4.39153 13.0318 8.71168 8.71168C13.0318 4.39153 18.8909 1.964 25.0005 1.96289C31.1098 1.96428 36.9684 4.39178 41.2883 8.71168C45.6082 13.0316 48.0357 18.8902 48.0371 24.9995C48.0357 31.1087 45.6082 36.9674 41.2883 41.2873C36.9684 45.6071 31.1098 48.0347 25.0005 48.036" fill="white"/>
<path d="M36.7605 22.6191L24.9308 3.90405L12.7598 22.6191L24.9308 17.5732L36.7605 22.6191ZM13.2403 27.7739L25.07 46.0964L37.24 27.7739L25.069 35.0602L13.2403 27.7739ZM37.24 25.3682L24.9318 20.2511L12.7608 25.3787L24.9318 32.6681L37.24 25.3682Z" fill="#659172"/>
</svg>
