<svg width="50" height="50" viewBox="0 0 50 50" fill="none" xmlns="http://www.w3.org/2000/svg">
<path d="M25 0C11.1986 0 0 11.1988 0 25C0 38.8012 11.1986 50 25 50C38.8013 50 50 38.8012 50 25C50 11.1988 38.8013 0 25 0ZM10.0158 27.0504V26.8923L10.7257 24.9204C10.9627 24.29 11.1207 23.6585 11.3567 23.0281C11.4357 22.8699 11.5147 22.7914 11.6716 22.7914H22.3183C22.3183 22.87 22.2393 23.0281 22.2393 23.1077L21.0564 26.6578C20.9774 26.8945 20.8984 26.9741 20.5846 26.9741H10.3307C10.2517 27.0526 10.0937 27.0526 10.0147 27.0526L10.0158 27.0504ZM39.9842 19.7954L36.9086 29.3386C36.2776 31.3105 33.5948 33.9128 30.6783 33.8321C24.1321 33.7536 17.588 33.8321 11.1196 33.8321H10.7246C10.8036 33.5955 10.8826 33.3588 10.9616 33.2017C11.3652 32.0832 11.7333 30.9524 12.0655 29.8109C12.1445 29.4946 12.3025 29.4946 12.5373 29.4946H30.2032C30.4402 29.4946 30.5982 29.4161 30.675 29.1783L33.3567 20.898C33.3567 20.8195 33.4357 20.7399 33.4357 20.5818H15.0621C15.0621 20.4236 15.1411 20.3451 15.1411 20.2655C15.5361 19.0036 16.0079 17.7417 16.403 16.4809C16.482 16.2442 16.561 16.1646 16.798 16.1646H36.6705C37.0655 16.1646 37.5373 16.2431 37.9323 16.3227C39.0362 16.7176 39.666 17.5061 39.9041 18.6099C39.9041 18.6884 39.9831 18.768 39.9831 18.8465V19.7932L39.9842 19.7954Z" fill="#3A74BE"/>
</svg>
