<svg width="50" height="50" viewBox="0 0 50 50" fill="none" xmlns="http://www.w3.org/2000/svg">
<path d="M24.9221 50C11.0426 49.9203 -0.0764082 38.7836 0.000395499 24.9609C0.000395499 11.0595 11.2796 -0.0782361 25.0801 0.00041399C38.9596 0.079064 50.0786 11.2954 49.9996 25.1182C49.8416 38.9409 38.6436 50.0787 24.9221 49.9989V50ZM47.555 25.0395C47.555 12.4806 37.4608 2.37084 24.9221 2.37084C12.4623 2.37084 2.36814 12.4806 2.36814 24.9609C2.36814 37.5198 12.4623 47.6296 25.0011 47.6296C37.4608 47.6296 47.555 37.5198 47.555 25.0395Z" fill="#031E6B"/>
<path d="M45.7396 25.0419C45.5684 36.5805 36.2675 45.8951 24.8325 45.811C13.2275 45.6406 4.01102 36.2386 4.18328 24.7852C4.35445 13.2466 13.6554 4.10132 25.0048 4.18762C36.5253 4.27282 45.7417 13.5896 45.7417 25.0408L45.7396 25.0419ZM39.5898 25.0288C39.5898 16.9672 33.101 10.4064 24.9905 10.3474C16.9996 10.2874 10.4527 16.7268 10.332 24.8496C10.2222 32.9113 16.7001 39.531 24.8698 39.6511C32.9199 39.7112 39.4691 33.1516 39.5887 25.0288H39.5898Z" fill="#DB9A1E"/>
<path d="M37.2206 25.0234C37.1197 31.8321 31.6304 37.33 24.8827 37.2797C18.034 37.1792 12.5941 31.6322 12.6961 24.8705C12.7971 18.0618 18.2863 12.6645 24.9847 12.7147C31.7829 12.765 37.2217 18.2639 37.2217 25.0212L37.2206 25.0234ZM34.945 25.018C34.945 19.5125 30.5157 15.0338 24.9781 14.9945C19.5229 14.953 15.0518 19.3486 14.9695 24.8956C14.8872 30.4011 19.3177 34.9191 24.8958 35.0022C30.3928 35.0437 34.8627 30.565 34.9461 25.018H34.945Z" fill="#0F2B71"/>
<path d="M17.3322 18.0083L20.9156 17.9395C21.0824 17.9504 21.1197 17.8848 21.1295 17.7177L21.0527 15.0021C21.0637 14.8361 21.0999 14.7727 21.2667 14.7814C21.8175 14.7989 22.3035 14.7782 22.8412 14.7443C23.0079 14.7552 23.0211 14.8055 22.9981 14.9213L23.0595 17.5866C23.0738 17.638 23.0869 17.6893 23.0639 17.8051L24.42 17.7723C24.4705 17.7581 24.4946 17.6412 24.5319 17.5779L24.521 15.5024L24.51 14.8492C24.4826 14.7465 24.521 14.682 24.6351 14.7072L26.3248 14.6941C26.3752 14.6809 26.3906 14.7323 26.44 14.7181L26.4893 16.728C26.5069 16.9968 26.5245 17.2655 26.4915 17.5473C26.4806 17.7133 26.5464 17.7516 26.7132 17.7614L28.6003 18.0891C29.2073 18.2607 29.7711 18.5577 30.2549 18.9608C30.9198 19.6053 31.1908 20.4071 31.2062 21.2788C31.204 21.8796 31.1382 22.4455 30.8397 22.9632C30.6159 23.351 30.2637 23.6645 29.8961 23.9245C29.8457 23.9387 29.8084 24.0032 29.7063 24.0305C29.951 24.1397 30.1825 24.1768 30.4283 24.2752C31.1634 24.5701 31.723 25.0245 32.118 25.6952C32.3703 26.2305 32.4844 26.8564 32.4833 27.4583C32.4723 28.2273 32.3824 28.9079 32.0741 29.5917C31.7205 30.3618 31.0793 30.9645 30.2867 31.2717C29.2576 31.7087 28.2108 31.8802 27.151 31.9993C26.9842 31.9883 26.8964 32.0681 26.8876 32.2341L26.9491 34.8995C26.9535 35.1179 26.9666 35.1682 26.6857 35.1343L25.1628 35.1562C24.9961 35.1453 24.9829 35.095 25.0059 34.9792L24.9818 32.2505C24.9544 32.1489 24.9928 32.0845 24.8754 32.0604L23.5192 32.0932L23.5478 35.0393C23.5258 35.1551 23.5368 35.2064 23.3722 35.1966C22.8214 35.1791 22.2838 35.213 21.7484 35.2468C21.5816 35.2359 21.5684 35.1857 21.5915 35.0699L21.5673 32.339C21.5531 32.2887 21.5893 32.2243 21.5629 32.1205L17.748 32.1533L17.8522 31.5241L18.0552 30.0472C18.0662 29.8812 18.1156 29.867 18.2692 29.8265C18.6532 29.8331 19.0888 29.8265 19.4585 29.7828C19.8941 29.7763 20.1443 29.4901 20.0993 29.1198L19.9204 20.7414C19.9128 20.3066 19.5342 19.9145 19.0339 19.8839C18.5336 19.8533 18.0464 19.8729 17.613 19.8806C17.511 19.9079 17.4463 19.8697 17.4704 19.755L17.4616 17.898C17.2992 18.1164 17.2992 18.1164 17.3365 18.04L17.3322 18.0083ZM23.3228 29.9227C23.3733 29.9085 23.438 29.9445 23.438 29.9445C24.3081 29.9314 25.2429 29.9554 26.124 29.7752C26.7494 29.6627 27.3089 29.513 27.8159 29.1602C28.7013 28.5955 28.766 27.2103 27.9859 26.544C27.6217 26.2032 27.1444 26.0568 26.6693 25.9104C25.616 25.645 24.4892 25.7269 23.415 25.7946C23.2482 25.7837 23.2614 25.8351 23.2526 26.0131L23.2943 27.5883L23.3239 29.9325L23.3228 29.9227ZM26.2019 23.5739C26.3039 23.5466 26.5453 23.4275 26.7351 23.3226C27.648 22.8606 27.8543 21.6011 27.1126 20.8692C26.734 20.4781 26.1931 20.2935 25.6796 20.2116C24.8841 20.0958 24.1293 20.1329 23.3097 20.1329C23.1429 20.122 23.1056 20.1875 23.0957 20.3536L23.1319 23.7355C23.11 23.8513 23.1736 23.8885 23.2888 23.9125L23.8901 23.9158C24.6823 23.8142 25.3856 23.7902 26.2008 23.5728L26.2019 23.5739Z" fill="#122C73"/>
</svg>
