<svg width="67" height="14" viewBox="0 0 67 14" fill="none" xmlns="http://www.w3.org/2000/svg">
<g clip-path="url(#clip0_146_5999)">
<path d="M27.2418 14L1.62383 14C0.726449 14 0 13.2705 0 12.3693L0 1.63065C0 0.729502 0.726449 0 1.62383 0L27.2418 0L27.2418 14Z" fill="url(#paint0_linear_146_5999)"/>
<path d="M65.1455 14L27.2419 14L27.2419 0L65.1455 0C66.0429 0 66.7693 0.729502 66.7693 1.63065V12.3747C66.7693 13.2705 66.0429 14 65.1455 14Z" fill="url(#paint1_linear_146_5999)"/>
<path d="M8.32214 8.49105C8.32214 9.02209 8.24736 9.44584 8.10314 9.76232C7.95892 10.0788 7.76662 10.3202 7.53694 10.4811C7.30725 10.6474 7.05086 10.7547 6.76776 10.8083C6.48465 10.8619 6.20689 10.8888 5.93448 10.8888H3.22632L3.22632 3.16998L6.20689 3.16998C6.59149 3.16998 6.90129 3.23435 7.14701 3.36308C7.39272 3.49182 7.58501 3.6581 7.72923 3.8673C7.87345 4.07649 7.9696 4.30715 8.02302 4.55925C8.07643 4.81136 8.0978 5.06347 8.09246 5.30485C8.08177 6.00753 7.9055 6.48492 7.56365 6.73703C7.78799 6.84431 7.9696 7.03741 8.11382 7.31634C8.2527 7.60063 8.32214 7.9922 8.32214 8.49105ZM6.65558 5.33167C6.65558 5.09029 6.62888 4.90791 6.57012 4.7899C6.51136 4.6719 6.39919 4.61289 6.22826 4.61289H4.68456V6.15236H6.08938C6.30838 6.15236 6.45261 6.07726 6.53273 5.93243C6.61285 5.78224 6.65558 5.57841 6.65558 5.33167ZM6.85856 8.50178C6.85856 8.28722 6.84254 8.11558 6.80515 7.9922C6.7731 7.86883 6.72502 7.76692 6.67161 7.69718C6.61819 7.62745 6.55944 7.57918 6.49 7.55772C6.4259 7.53626 6.3618 7.52554 6.2977 7.52554L4.68456 7.52554V9.37611H6.17485C6.43124 9.37611 6.61285 9.30638 6.709 9.17228C6.81049 9.03282 6.85856 8.81289 6.85856 8.50178ZM14.1658 10.8888L9.28362 10.8888V3.16998L14.0803 3.16998V4.66653L10.7365 4.66653V6.08799H13.8132V7.58454L10.7365 7.58454V9.38148L14.1658 9.38148V10.8888ZM19.8171 8.60906C19.8171 10.2343 18.9465 11.0497 17.2051 11.0497C16.3612 11.0497 15.7148 10.8083 15.2715 10.3309C14.8281 9.84814 14.6091 9.10791 14.6091 8.10485H16.0246C16.0353 8.32477 16.062 8.53397 16.0994 8.71634C16.1368 8.90408 16.2063 9.05964 16.3024 9.19374C16.3985 9.32784 16.5214 9.42975 16.6763 9.50485C16.8312 9.57994 17.0288 9.61749 17.2692 9.61749C17.6645 9.61749 17.9476 9.5424 18.1239 9.39757C18.3001 9.25274 18.3909 8.96308 18.3909 8.54469C18.3909 8.32477 18.3535 8.16385 18.2841 8.0673C18.2147 7.97075 18.1025 7.89565 17.9529 7.83665C17.782 7.77228 17.5737 7.724 17.3333 7.68646C17.0929 7.64891 16.8152 7.5899 16.5054 7.50408C16.265 7.43435 16.0407 7.35389 15.8377 7.2627C15.6347 7.17151 15.4531 7.04814 15.2982 6.88186C15.1433 6.71558 15.0258 6.50102 14.9403 6.23818C14.8548 5.97535 14.8121 5.62669 14.8121 5.19757C14.8121 4.88109 14.8495 4.60753 14.9296 4.37688C15.0044 4.14623 15.1112 3.94776 15.2394 3.78684C15.3676 3.62592 15.5172 3.49718 15.6828 3.39527C15.8537 3.29335 16.0246 3.21826 16.2009 3.16462C16.3772 3.11098 16.5535 3.07343 16.7297 3.05734C16.906 3.04125 17.0716 3.03052 17.2158 3.03052C17.7179 3.03052 18.1292 3.11098 18.439 3.26653C18.7542 3.42209 18.9945 3.63128 19.1708 3.87803C19.3471 4.13013 19.4646 4.41443 19.5233 4.72554C19.5821 5.04201 19.6142 5.35312 19.6142 5.65887L18.2254 5.65887C18.204 5.53013 18.188 5.38531 18.1719 5.22975C18.1613 5.0742 18.1239 4.93473 18.0704 4.82209C18.0224 4.72017 17.9422 4.62899 17.8194 4.54853C17.6965 4.46807 17.5042 4.42515 17.2425 4.42515C17.0395 4.42515 16.8686 4.44125 16.7351 4.47879C16.6015 4.51634 16.5 4.56998 16.4253 4.63971C16.3505 4.70944 16.2971 4.806 16.2703 4.91864C16.2436 5.03128 16.2276 5.17075 16.2276 5.3263C16.2276 5.51404 16.2703 5.64814 16.3505 5.7286C16.4306 5.80906 16.5855 5.87879 16.8098 5.9378C17.0449 6.00217 17.2799 6.0558 17.5203 6.09872C17.7606 6.14163 17.9903 6.19527 18.2147 6.25427C18.439 6.31328 18.6473 6.39374 18.8396 6.49565C19.0319 6.59757 19.2029 6.73167 19.3471 6.90868C19.4913 7.08569 19.6088 7.31098 19.6889 7.58454C19.7797 7.8581 19.8171 8.2014 19.8171 8.60906ZM25.1213 4.66117H23.3639V10.8888H21.9057V4.66117L20.1483 4.66117V3.16998L25.1159 3.16998V4.66117H25.1213Z" fill="white"/>
<path d="M34.5438 8.05143C34.5117 8.45373 34.4423 8.83457 34.3355 9.19932C34.2286 9.56407 34.0737 9.88055 33.8708 10.1487C33.6678 10.4223 33.4007 10.6369 33.0749 10.7978C32.749 10.9587 32.3538 11.0392 31.889 11.0392C31.3549 11.0392 30.9009 10.948 30.527 10.7656C30.153 10.5832 29.8539 10.315 29.6189 9.97173C29.3892 9.62308 29.2183 9.19396 29.1168 8.68438C29.01 8.1748 28.9565 7.59549 28.9565 6.94108C28.9565 6.34032 29.0153 5.79319 29.1275 5.31043C29.2396 4.82767 29.4159 4.41465 29.6563 4.07135C29.8967 3.73342 30.2011 3.47059 30.5643 3.28821C30.9329 3.10584 31.3709 3.01465 31.8784 3.01465C32.3912 3.01465 32.8078 3.09511 33.1336 3.25603C33.4595 3.41695 33.7159 3.62614 33.9135 3.88361C34.1058 4.14108 34.2447 4.4361 34.3301 4.76331C34.4156 5.09051 34.4743 5.42308 34.5117 5.75028H33.1336C33.1016 5.57863 33.0642 5.41235 33.0215 5.25679C32.9841 5.10124 32.92 4.96177 32.8398 4.84913C32.7597 4.73649 32.6475 4.6453 32.5087 4.57557C32.3698 4.50584 32.1828 4.47365 31.9478 4.47365C31.6647 4.47365 31.4243 4.52193 31.232 4.61312C31.0397 4.7043 30.8795 4.85449 30.762 5.06369C30.6445 5.27289 30.559 5.54645 30.5056 5.88438C30.4522 6.22231 30.4308 6.6407 30.4308 7.13955C30.4308 7.64377 30.4682 8.04606 30.5376 8.36254C30.6071 8.67365 30.7086 8.92039 30.8368 9.09204C30.965 9.26905 31.1199 9.38706 31.3068 9.45143C31.4938 9.5158 31.6968 9.54798 31.9264 9.54798C32.1615 9.54798 32.3431 9.51043 32.482 9.4407C32.6208 9.37097 32.7277 9.26905 32.8078 9.13495C32.8879 9.00085 32.952 8.8453 32.9947 8.66292C33.0428 8.48055 33.0856 8.27672 33.1336 8.04606H34.5438V8.05143ZM40.3928 10.889H38.9399V7.55794L36.7498 7.55794V10.889H35.2969V3.1702L36.7498 3.1702V6.05066H38.9399V3.1702H40.3928V10.889ZM46.5195 10.889H44.9972L44.5966 9.29587L42.6629 9.29587L42.2676 10.889H40.7987L42.9033 3.1702L44.3455 3.1702L46.5195 10.889ZM44.2333 7.85833L43.6351 5.3748L43.0208 7.85833H44.2333ZM50.7874 10.889L48.5653 6.19013V10.889H47.1124V3.1702H48.5386L50.7767 7.83687V3.1702H52.2189V10.889H50.7874ZM58.773 10.889H57.5925V10.1058C57.507 10.2936 57.4002 10.4438 57.272 10.5618C57.1438 10.6798 57.0049 10.771 56.8554 10.8407C56.7058 10.9104 56.5456 10.9533 56.3853 10.9802C56.2251 11.007 56.0648 11.0177 55.9099 11.0177C55.3758 11.0177 54.9271 10.9158 54.5692 10.7066C54.2113 10.4974 53.9229 10.2131 53.7039 9.84836C53.4849 9.48361 53.33 9.04913 53.2392 8.55028C53.1484 8.05143 53.1003 7.51503 53.1003 6.94108C53.1003 4.32346 54.0778 3.01465 56.0381 3.01465C56.5242 3.01465 56.9302 3.09511 57.2667 3.25066C57.6032 3.40622 57.8756 3.62078 58.0839 3.87825C58.2923 4.14109 58.4418 4.44147 58.5326 4.77403C58.6234 5.11197 58.6715 5.46062 58.6715 5.81465L57.1866 5.81465C57.1866 5.65909 57.1759 5.49817 57.1545 5.33189C57.1331 5.16561 57.0851 5.02078 57.0103 4.89204C56.9355 4.76331 56.818 4.65603 56.6631 4.57557C56.5082 4.49511 56.2999 4.4522 56.0328 4.4522C55.7657 4.4522 55.536 4.49511 55.3544 4.5863C55.1675 4.67748 55.0179 4.81695 54.9004 5.01005C54.7829 5.20315 54.6974 5.45526 54.644 5.76101C54.5906 6.06675 54.5639 6.43687 54.5639 6.86599C54.5639 7.33802 54.5852 7.74568 54.6333 8.08361C54.6814 8.42154 54.7615 8.69511 54.879 8.89894C54.9965 9.10813 55.1514 9.25832 55.3437 9.35488C55.536 9.45143 55.7817 9.4997 56.0809 9.4997C56.2518 9.4997 56.412 9.47288 56.5669 9.41924C56.7218 9.3656 56.8554 9.27978 56.9676 9.16714C57.0797 9.05449 57.1705 8.9043 57.2346 8.72729C57.2987 8.55028 57.3254 8.33572 57.3201 8.08361H55.9527V6.66216L58.7837 6.66216V10.889H58.773ZM64.5579 10.889H59.6864V3.1702L64.4724 3.1702V4.66676H61.1393V6.08821H64.2053V7.58476H61.1393V9.3817H64.5579V10.889Z" fill="#363636"/>
</g>
<defs>
<linearGradient id="paint0_linear_146_5999" x1="13.6211" y1="14" x2="13.6211" y2="0" gradientUnits="userSpaceOnUse">
<stop stop-color="#1C1C1C"/>
<stop offset="1" stop-color="#4B4B4B"/>
</linearGradient>
<linearGradient id="paint1_linear_146_5999" x1="47.0058" y1="14" x2="47.0058" y2="0" gradientUnits="userSpaceOnUse">
<stop stop-color="#BCBCBC"/>
<stop offset="1" stop-color="#F3F3F3"/>
</linearGradient>
<clipPath id="clip0_146_5999">
<rect width="66.7692" height="14" fill="white"/>
</clipPath>
</defs>
</svg>
