<svg width="50" height="50" viewBox="0 0 50 50" fill="none" xmlns="http://www.w3.org/2000/svg">
<path d="M25 50C38.8071 50 50 38.8071 50 25C50 11.1929 38.8071 0 25 0C11.1929 0 0 11.1929 0 25C0 38.8071 11.1929 50 25 50Z" fill="#F5B300"/>
<path d="M18.2185 12.2238L23.422 13.4857C23.6584 13.5649 23.7364 13.4857 23.8166 13.2494L24.763 9.30658C24.8422 9.07025 24.9213 8.9922 25.1577 9.07025C25.9458 9.30658 26.6559 9.46486 27.4342 9.62313C27.6706 9.70227 27.6706 9.78141 27.5925 9.93752L26.6461 13.8023C26.6461 13.8814 26.6461 13.9605 26.567 14.1167L28.54 14.5893C28.6191 14.5893 28.6972 14.431 28.7763 14.353L29.5644 11.3566L29.8008 10.4102C29.8008 10.2519 29.8799 10.1738 30.0371 10.2519L32.4817 10.8828C32.5608 10.8828 32.5608 10.962 32.6389 10.962L31.9288 13.8803C31.8497 14.2749 31.7716 14.6684 31.6144 15.062C31.5353 15.2983 31.6144 15.3764 31.8508 15.4566L34.4526 16.6382C35.2407 17.1109 35.9508 17.7418 36.5037 18.531C37.2137 19.7127 37.2918 20.9756 36.9763 22.2386C36.74 23.1059 36.4234 23.8951 35.7947 24.5152C35.322 24.9878 34.6911 25.3033 34.0601 25.5407C33.981 25.5407 33.9019 25.6198 33.7457 25.6198C34.0601 25.8562 34.3767 26.0144 34.6921 26.2508C35.6386 26.9608 36.2695 27.8281 36.585 28.9317C36.7421 29.799 36.6641 30.7454 36.4278 31.6126C36.1134 32.7162 35.7177 33.6637 35.0076 34.531C34.1404 35.5565 33.0346 36.1083 31.7738 36.2655C30.1173 36.5018 28.54 36.3447 26.9627 36.1083C26.7263 36.0292 26.568 36.1083 26.49 36.3447L25.5436 40.2094C25.4644 40.5238 25.4644 40.604 25.0709 40.4457L22.8627 39.8929C22.6263 39.8137 22.6263 39.7357 22.7055 39.5785L23.731 35.6357C23.731 35.4785 23.8101 35.3993 23.6519 35.3213L21.6788 34.8486L20.5752 39.1069C20.4961 39.2652 20.4961 39.3432 20.2609 39.2652C19.4727 39.0288 18.6835 38.8706 17.8943 38.7123C17.658 38.6331 17.658 38.5551 17.7371 38.3979L18.7627 34.4551C18.7627 34.376 18.8418 34.2979 18.8418 34.1407L13.3217 32.7206L13.7163 31.8533L14.5835 29.8022C14.6627 29.5659 14.7407 29.5659 14.9781 29.5659C15.531 29.7242 16.1598 29.8803 16.7127 29.9605C17.3436 30.1188 17.8184 29.8033 17.8943 29.2504L20.8907 17.1055C21.0479 16.4745 20.6544 15.7645 19.9443 15.5281C19.2342 15.2918 18.535 15.1335 17.8932 14.9752C17.7349 14.9752 17.6569 14.8961 17.7349 14.7389L18.445 12.058C18.1306 12.2943 18.1306 12.2943 18.2087 12.2163L18.2185 12.2238ZM22.2296 31.7048C22.3087 31.7048 22.3867 31.7839 22.3867 31.7839C23.6486 32.0983 24.9885 32.494 26.3295 32.5721C27.276 32.6512 28.1432 32.6512 29.0105 32.3357C30.5087 31.8631 31.1396 29.8911 30.2724 28.6282C29.8777 27.9972 29.2468 27.6026 28.6159 27.208C27.2066 26.4199 25.5403 26.1044 23.963 25.7879C23.7267 25.7087 23.7267 25.7879 23.6486 26.0242L23.0957 28.3008L22.2285 31.6918L22.2296 31.7048ZM28.8533 23.6609C29.0105 23.6609 29.4062 23.5818 29.7206 23.5026C31.2188 23.1882 31.9971 21.4537 31.2188 20.1116C30.8241 19.4015 30.1152 18.93 29.4051 18.6134C28.3015 18.1408 27.1968 17.9033 26.0141 17.5879C25.7777 17.5087 25.6997 17.5879 25.6195 17.8242L24.3576 22.7026C24.2785 22.8609 24.3576 22.9389 24.5159 23.017L25.3831 23.2533C26.5648 23.4105 27.5914 23.6479 28.8522 23.6479L28.8533 23.6609Z" fill="white"/>
</svg>
