<svg width="50" height="50" viewBox="0 0 50 50" fill="none" xmlns="http://www.w3.org/2000/svg">
<path d="M25.4723 16.4064H21.8766V23.5128H27.5362V26.4894H21.8766V33.5957H25.6479C26.6053 33.5957 33.6053 33.7053 33.5947 25.3277C33.584 16.95 26.8181 16.4085 25.4734 16.4085L25.4723 16.4064ZM25 0C11.1915 0 0 11.1915 0 25C0 38.8085 11.1915 50 25 50C38.8085 50 50 38.8085 50 25C50 11.1915 38.8085 0 25 0ZM25.9819 38.5021H16.9394V26.466H13.7479V23.517H16.9394V11.4894H24.7096C26.5479 11.4894 38.7234 11.1064 38.7234 25.2266C38.7234 39.5883 25.9936 38.5117 25.9936 38.5117L25.9819 38.5021Z" fill="#F8BF1A"/>
</svg>
