<svg width="9" height="16" viewBox="0 0 9 16" fill="none" xmlns="http://www.w3.org/2000/svg">
<path fill-rule="evenodd" clip-rule="evenodd" d="M8.6517 15.68C8.44672 15.8849 8.16875 16 7.87891 16C7.58908 16 7.3111 15.8849 7.10613 15.68L0.547814 9.12166C0.342898 8.91668 0.227783 8.63871 0.227783 8.34887C0.227783 8.05903 0.342898 7.78106 0.547814 7.57608L7.10613 1.01777C7.31228 0.818662 7.58838 0.708488 7.87498 0.710979C8.16157 0.713469 8.43573 0.828424 8.63839 1.03109C8.84105 1.23375 8.956 1.5079 8.95849 1.79449C8.96098 2.08109 8.85081 2.35719 8.6517 2.56335L3.95923 7.25582H3.2638C3.5537 7.25582 3.83172 7.37098 4.03671 7.57597C4.2417 7.78095 4.35686 8.05897 4.35686 8.34887C4.35686 8.63876 4.2417 8.91679 4.03671 9.12177C3.83172 9.32676 3.5537 9.44192 3.2638 9.44192H3.95923L8.6517 14.1344C8.85662 14.3394 8.97173 14.6173 8.97173 14.9072C8.97173 15.197 8.85662 15.475 8.6517 15.68Z" fill="white"/>
</svg>
